<?xml version="1.0" encoding="UTF-8"?>
<svg id="Layer_1" data-name="Layer 1" xmlns="http://www.w3.org/2000/svg" version="1.1" xmlns:xlink="http://www.w3.org/1999/xlink" viewBox="0 0 1920 1080">
  <defs>
    <style>
      .cls-1 {
        font-size: 21.4px;
      }

      .cls-1, .cls-2, .cls-3, .cls-4, .cls-5, .cls-6, .cls-7 {
        isolation: isolate;
      }

      .cls-1, .cls-8 {
        fill: #303030;
      }

      .cls-1, .cls-7 {
        font-family: Nunito-SemiBold, Nunito;
        font-weight: 600;
      }

      .cls-9 {
        fill: url(#linear-gradient);
      }

      .cls-9, .cls-10, .cls-11, .cls-12, .cls-13, .cls-14, .cls-15, .cls-6, .cls-16, .cls-17, .cls-18, .cls-8, .cls-19, .cls-20, .cls-21 {
        stroke-width: 0px;
      }

      .cls-10 {
        fill: #67a652;
      }

      .cls-10, .cls-12, .cls-4, .cls-22, .cls-18, .cls-8, .cls-19, .cls-23 {
        display: none;
      }

      .cls-11, .cls-2, .cls-3 {
        fill: #000;
      }

      .cls-2 {
        font-family: Calibri, Calibri;
        font-size: 28.9px;
      }

      .cls-3 {
        font-family: Arial-BoldMT, Arial;
        font-size: 42px;
        font-weight: 700;
      }

      .cls-12, .cls-20, .cls-7 {
        fill: #fff;
      }

      .cls-13 {
        fill: #0d8b92;
      }

      .cls-14 {
        fill: #87c9c7;
      }

      .cls-15 {
        fill: #f6c543;
      }

      .cls-22 {
        opacity: .4;
      }

      .cls-22, .cls-6 {
        mix-blend-mode: screen;
      }

      .cls-24 {
        stroke: #fff;
        stroke-miterlimit: 10;
      }

      .cls-24, .cls-19 {
        fill: none;
      }

      .cls-6 {
        fill: url(#radial-gradient);
      }

      .cls-16 {
        fill: url(#linear-gradient-2);
      }

      .cls-17 {
        fill: url(#linear-gradient-3);
      }

      .cls-18 {
        fill: #119ea5;
      }

      .cls-21 {
        fill: url(#linear-gradient-4);
      }

      .cls-7 {
        font-size: 27.2px;
      }
    </style>
    <radialGradient id="radial-gradient" cx="963.2" cy="-797.7" fx="963.2" fy="-797.7" r="2243.5" gradientTransform="translate(0 1080) scale(1 -1)" gradientUnits="userSpaceOnUse">
      <stop offset=".3" stop-color="#000"/>
      <stop offset=".4" stop-color="#010201"/>
      <stop offset=".5" stop-color="#050a07"/>
      <stop offset=".5" stop-color="#0b1710"/>
      <stop offset=".5" stop-color="#152a1d"/>
      <stop offset=".6" stop-color="#22432e"/>
      <stop offset=".6" stop-color="#316143"/>
      <stop offset=".6" stop-color="#326345"/>
      <stop offset=".6" stop-color="#2a543a"/>
      <stop offset=".7" stop-color="#1b3525"/>
      <stop offset=".7" stop-color="#0f1e14"/>
      <stop offset=".7" stop-color="#060d09"/>
      <stop offset=".8" stop-color="#010302"/>
      <stop offset=".8" stop-color="#000"/>
    </radialGradient>
    <linearGradient id="linear-gradient" x1="1049.7" y1="211.5" x2="1430.6" y2="211.5" gradientTransform="translate(0 1080) scale(1 -1)" gradientUnits="userSpaceOnUse">
      <stop offset="0" stop-color="#176975"/>
      <stop offset="1" stop-color="#c1ef87"/>
    </linearGradient>
    <linearGradient id="linear-gradient-2" x1="453.1" y1="647.1" x2="1145.1" y2="647.1" gradientTransform="translate(0 1080) scale(1 -1)" gradientUnits="userSpaceOnUse">
      <stop offset="0" stop-color="#176975"/>
      <stop offset="1" stop-color="#c1ef87"/>
    </linearGradient>
    <linearGradient id="linear-gradient-3" x1="620.9" y1="832.9" x2="976.9" y2="832.9" gradientTransform="translate(0 1080) scale(1 -1)" gradientUnits="userSpaceOnUse">
      <stop offset="0" stop-color="#176975"/>
      <stop offset="1" stop-color="#c1ef87"/>
    </linearGradient>
    <linearGradient id="linear-gradient-4" x1="1005.9" y1="388" x2="1115.2" y2="388" gradientTransform="translate(0 1080) scale(1 -1)" gradientUnits="userSpaceOnUse">
      <stop offset="0" stop-color="#176975"/>
      <stop offset="1" stop-color="#c1ef87"/>
    </linearGradient>
  </defs>
  <g class="cls-5">
    <g id="Layer_1-2" data-name="Layer 1">
      <g>
        <rect class="cls-10" x="-213.8" y="-228.4" width="2636.5" height="1912.8"/>
        <rect class="cls-18" x="-314.8" y="-229.4" width="2514.9" height="1571.8"/>
        <g class="cls-23">
          <rect class="cls-6" x="-309.7" y="-391.8" width="2514.9" height="1571.8"/>
        </g>
        <g class="cls-22">
          <path class="cls-14" d="M459.3,602.6c-7.2-6.7-18.5-6.3-25.2.9s-6.3,18.5.9,25.2c7.2,6.7,18.5,6.3,25.2-.9s6.3-18.5-.9-25.2Z"/>
          <path class="cls-14" d="M-129.5,640.2c-7.2-6.7-18.5-6.3-25.2.9s-6.3,18.5.9,25.2,18.5,6.3,25.2-.9,6.3-18.5-.9-25.2Z"/>
          <path class="cls-14" d="M1938,315.9c-7.2-6.7-18.5-6.3-25.2.9-6.7,7.2-6.3,18.5.9,25.2,7.2,6.7,18.5,6.3,25.2-.9,6.7-7.2,6.3-18.5-.9-25.2Z"/>
          <path class="cls-14" d="M105.6,1078.7c-2.4-2.3-6.2-2.3-8.6,0-2.3,2.4-2.3,6.2,0,8.6,2.4,2.3,6.2,2.3,8.6,0,2.3-2.4,2.3-6.2,0-8.6h0Z"/>
          <path class="cls-14" d="M625.9,1064.8c-2.4-2.3-6.2-2.3-8.6,0-2.3,2.4-2.3,6.2,0,8.6,2.4,2.3,6.2,2.3,8.6,0,2.3-2.4,2.3-6.2,0-8.6h0Z"/>
          <path class="cls-14" d="M1692.6,642.8c-2.4-2.3-6.2-2.3-8.6,0-2.3,2.4-2.3,6.2,0,8.6,2.4,2.3,6.2,2.3,8.6,0,2.3-2.4,2.3-6.2,0-8.6h0Z"/>
          <path class="cls-14" d="M869.6,1161.2c1.6,3,5.3,4.1,8.2,2.5,3-1.6,4.1-5.3,2.5-8.2-1.6-3-5.3-4.1-8.2-2.5-3,1.6-4.1,5.3-2.5,8.2Z"/>
          <path class="cls-14" d="M831.5,388.1c1.6,3,5.3,4.1,8.2,2.5,3-1.6,4.1-5.3,2.5-8.2-1.6-3-5.3-4.1-8.2-2.5-3,1.6-4.1,5.3-2.5,8.2Z"/>
          <path class="cls-14" d="M1648.1,414.5c1.6,3,5.3,4.1,8.2,2.5,3-1.6,4.1-5.3,2.5-8.2-1.6-3-5.3-4.1-8.2-2.5-3,1.6-4.1,5.3-2.5,8.2Z"/>
          <path class="cls-14" d="M817.1,946.6c-3.9,2.5-5,7.8-2.5,11.7s7.8,5,11.7,2.5,5-7.8,2.5-11.7-7.8-5-11.7-2.5Z"/>
          <path class="cls-14" d="M1389,818.3c-3.9,2.5-5,7.8-2.5,11.7s7.8,5,11.7,2.5c3.9-2.5,5-7.8,2.5-11.7s-7.8-5-11.7-2.5Z"/>
          <path class="cls-14" d="M-83.7,920.5c6.1,3.8,14.1,1.9,17.9-4.2,3.8-6.1,1.9-14.1-4.2-17.9-6.1-3.8-14.1-1.9-17.9,4.2-3.8,6.1-1.9,14.1,4.2,17.9Z"/>
          <path class="cls-14" d="M1220.6,820.4c6.1,3.8,14.1,1.9,17.9-4.2,3.8-6.1,1.9-14.1-4.2-17.9-6.1-3.8-14.1-1.9-17.9,4.2-3.8,6.1-1.9,14.1,4.2,17.9Z"/>
          <path class="cls-14" d="M1483.4,513.2c6.1,3.8,14.1,1.9,17.9-4.2,3.8-6.1,1.9-14.1-4.2-17.9s-14.1-1.9-17.9,4.2-1.9,14.1,4.2,17.9Z"/>
          <path class="cls-14" d="M1993,985.8c6.1,3.8,14.1,1.9,17.9-4.2,3.8-6.1,1.9-14.1-4.2-17.9-6.1-3.8-14.1-1.9-17.9,4.2-3.8,6.1-1.9,14.1,4.2,17.9Z"/>
          <path class="cls-14" d="M-.5,1150.6c-.6-10.7,7.6-19.8,18.3-20.4,10.7-.6,19.8,7.6,20.4,18.3.6,10.7-7.6,19.8-18.3,20.4-10.7.6-19.8-7.6-20.4-18.3Z"/>
          <path class="cls-14" d="M1786,872.4c-.3-3.6,2.4-6.8,6.1-7.1,3.6-.3,6.8,2.4,7.1,6.1.3,3.6-2.4,6.8-6.1,7.1-3.6.3-6.8-2.4-7.1-6.1Z"/>
          <path class="cls-14" d="M2106.5,548.7c-.3-3.6,2.4-6.8,6.1-7.1,3.6-.3,6.8,2.4,7.1,6.1.3,3.6-2.4,6.8-6.1,7.1-3.6.3-6.8-2.4-7.1-6.1Z"/>
          <path class="cls-14" d="M1278.6,646.4c-.3-3.6,2.4-6.8,6.1-7.1,3.6-.3,6.8,2.4,7.1,6.1.3,3.6-2.4,6.8-6.1,7.1-3.6.3-6.8-2.4-7.1-6.1Z"/>
          <path class="cls-14" d="M1188.9,917.3c1.4,3.4-.3,7.2-3.6,8.6-3.4,1.4-7.2-.3-8.6-3.6-1.4-3.4.3-7.2,3.6-8.6,3.4-1.4,7.2.3,8.6,3.6Z"/>
          <path class="cls-14" d="M2041,1124.9c1.4,3.4-.3,7.2-3.6,8.6-3.4,1.4-7.2-.3-8.6-3.6-1.4-3.4.3-7.2,3.6-8.6,3.4-1.4,7.2.3,8.6,3.6Z"/>
          <path class="cls-14" d="M21.6,1045.6c1.4,3.4-.3,7.2-3.6,8.6-3.4,1.4-7.2-.3-8.6-3.6-1.4-3.4.3-7.2,3.6-8.6,3.4-1.4,7.2.3,8.6,3.6Z"/>
          <path class="cls-14" d="M1607.1,1076.4c4.9-1.5,10,1.2,11.5,6.1s-1.2,10-6.1,11.5-10-1.2-11.5-6.1,1.2-10,6.1-11.5Z"/>
          <path class="cls-14" d="M2117.7,843.6c4.9-1.5,10,1.2,11.5,6.1,1.5,4.9-1.2,10-6.1,11.5-4.9,1.5-10-1.2-11.5-6.1-1.5-4.9,1.2-10,6.1-11.5Z"/>
          <path class="cls-14" d="M1046.4,723.5c4.9-1.5,10,1.2,11.5,6.1,1.5,4.9-1.2,10-6.1,11.5s-10-1.2-11.5-6.1c-1.5-4.9,1.2-10,6.1-11.5Z"/>
          <path class="cls-14" d="M539.8,1111.4c4.9-1.5,10,1.2,11.5,6.1s-1.2,10-6.1,11.5c-4.9,1.5-10-1.2-11.5-6.1s1.2-10,6.1-11.5Z"/>
          <path class="cls-14" d="M888.8,652.5c-1.1,7.7-8.2,13.1-16,12-7.7-1.1-13.1-8.2-12-16,1.1-7.7,8.2-13.1,16-12,7.7,1.1,13.1,8.2,12,16Z"/>
          <path class="cls-14" d="M659.2,972.2c-1.1,7.7-8.2,13.1-16,12-7.7-1.1-13.1-8.2-12-16,1.1-7.7,8.2-13.1,16-12,7.7,1.1,13.1,8.2,12,16Z"/>
          <path class="cls-14" d="M408,1135.2c-1.1,7.7-8.2,13.1-16,12-7.7-1.1-13.1-8.2-12-16,1.1-7.7,8.2-13.1,16-12,7.7,1.1,13.1,8.2,12,16Z"/>
          <path class="cls-14" d="M1708.9,540.3c-1.1,7.7-8.2,13.1-16,12-7.7-1.1-13.1-8.2-12-16,1.1-7.7,8.2-13.1,16-12,7.7,1.1,13.1,8.2,12,16Z"/>
        </g>
        <circle class="cls-19" cx="1002.5" cy="-1611.2" r="2894.7"/>
        <rect class="cls-19" x="-737.1" y="-233.2" width="4143.2" height="1707.2"/>
        <rect class="cls-12" x="-103.4" y="69.1" width="2198.2" height="242.9"/>
        <g class="cls-23">
          <g>
            <path class="cls-15" d="M1919.4,285.2h-214.8c-16.1,0-29.2-13.1-29.2-29.2s13.1-29.2,29.2-29.2h214.8c16.1,0,29.2,13.1,29.2,29.2s-13.1,29.2-29.2,29.2Z"/>
            <path class="cls-15" d="M1919.4,285.2h-214.8c-16.1,0-29.2-13.1-29.2-29.2s13.1-29.2,29.2-29.2h214.8c16.1,0,29.2,13.1,29.2,29.2s-13.1,29.2-29.2,29.2Z"/>
          </g>
          <path class="cls-15" d="M1919.4,285.2h-214.8c-16.1,0-29.2-13.1-29.2-29.2s13.1-29.2,29.2-29.2h214.8c16.1,0,29.2,13.1,29.2,29.2s-13.1,29.2-29.2,29.2Z"/>
        </g>
        <g class="cls-4">
          <text class="cls-1" transform="translate(1728.9 261)"><tspan x="0" y="0">Request a Demo</tspan></text>
        </g>
        <rect class="cls-8" x="-108.5" y="71" width="2208.4" height="130.6"/>
        <g class="cls-23">
          <g class="cls-4">
            <text class="cls-7" transform="translate(1712.7 175.3)"><tspan x="0" y="0">Support</tspan></text>
          </g>
          <g class="cls-4">
            <text class="cls-7" transform="translate(1567.6 175.3)"><tspan x="0" y="0">Contact</tspan></text>
          </g>
          <g class="cls-4">
            <text class="cls-7" transform="translate(1856.1 175.3)"><tspan x="0" y="0">Login</tspan></text>
          </g>
        </g>
        <g id="_286_General_Magnifier_Magnify_Search" data-name=" 286 General Magnifier Magnify Search">
          <g>
            <g>
              <path class="cls-20" d="M1388.6,914.5c28,27.7,28,74.5,0,102.2s-75.2,27.7-103.2,0l-192.4-190.6c-28-27.7-28-74.5,0-102.2,14-13.9,33.2-20.8,52.5-20.8s36.7,6.9,52.5,20.8l190.7,190.6h0Z"/>
              <path class="cls-20" d="M1028.2,205.9c110.2,109.1,124.2,277.2,43.7,401.9-12.2,19.1-26.2,36.4-43.7,52-17.5,17.3-35,31.2-54.2,43.3-126,79.7-293.9,65.8-404.1-43.3-126-124.7-126-329.1,0-453.9,126-124.7,332.4-124.7,458.4,0h0Z"/>
            </g>
            <g>
              <path class="cls-9" d="M1336.1,1058.2c-24.5,0-49-10.4-66.5-27.7l-192.4-190.6c-36.7-36.4-36.7-97,0-133.4,17.5-17.3,42-27.7,66.5-27.7s49,10.4,66.5,27.7l192.4,190.6c17.5,17.3,28,41.6,28,65.8s-10.5,48.5-28,65.8c-17.5,20.8-40.2,29.5-66.5,29.5ZM1145.4,723.9c-14,0-26.2,5.2-36.7,15.6-19.2,19.1-19.2,52,0,71l192.5,190.6c10.5,10.4,22.8,15.6,36.7,15.6s26.2-5.2,36.7-15.6c10.5-10.4,15.7-22.5,15.7-36.4s-5.2-26-15.7-36.4l-192.5-190.6c-10.5-8.7-24.5-13.9-36.7-13.9h0Z"/>
              <path class="cls-16" d="M799,775.9h0c-92.7,0-180.2-36.4-244.9-100.5-134.7-133.4-134.7-351.7,0-485.1,64.7-64.1,152.2-100.5,244.9-100.5s180.2,36.4,244.9,100.5c56,55.4,91,129.9,99.7,207.9,7,78-10.5,155.9-54.2,220-14,20.8-28,39.8-45.5,57.2-17.5,17.3-36.7,32.9-57.7,46.8-56,36.4-120.7,53.7-187.2,53.7ZM799,134.9c-80.5,0-157.5,31.2-213.4,88.3-117.2,116.1-117.2,306.6,0,422.7,57.7,57.2,133,88.3,213.4,88.3h0c57.7,0,113.7-15.6,162.7-46.8,19.2-12.1,35-26,50.7-41.6,15.7-15.6,28-31.2,40.2-48.5,77-117.8,59.5-275.4-40.2-374.2-56-57.2-131.2-88.3-213.4-88.3h0Z"/>
              <path class="cls-17" d="M956.4,301.2c-5.3,0-10.5-1.7-15.8-6.9-77-76.2-204.7-76.2-281.7,0-8.7,8.7-22.7,8.7-31.5,0-8.7-8.7-8.7-22.5,0-31.2,94.5-93.5,248.4-93.5,342.9,0,8.8,8.7,8.8,22.5,0,31.2-3.5,3.5-8.7,6.9-14,6.9h0Z"/>
              <path class="cls-21" d="M1092.9,746.4c-5.2,0-10.5-1.7-15.7-6.9l-64.7-64.1c-8.8-8.7-8.8-22.5,0-31.2,8.7-8.7,22.7-8.7,31.5,0l64.7,64.1c8.7,8.7,8.7,22.5,0,31.2-5.2,3.5-10.5,6.9-15.7,6.9h0Z"/>
            </g>
          </g>
        </g>
        <g class="cls-23">
          <circle class="cls-24" cx="966.4" cy="1203.9" r="10.2"/>
          <circle class="cls-20" cx="1002.1" cy="1203.9" r="10.2"/>
          <circle class="cls-24" cx="1037.8" cy="1203.9" r="10.2"/>
        </g>
        <g class="cls-23">
          <rect class="cls-20" x="-4068.1" y="886.8" width="536.8" height="107"/>
          <g class="cls-4">
            <text class="cls-3" transform="translate(-4019.8 953.5)"><tspan x="0" y="0">REQUEST A DEMO</tspan></text>
          </g>
          <polygon class="cls-11" points="-3573.2 936 -3602.1 919.4 -3602.1 952.7 -3573.2 936"/>
          <rect class="cls-20" x="4561.1" y="894.2" width="536.8" height="107" rx="9.8" ry="9.8"/>
          <g class="cls-4">
            <text class="cls-3" transform="translate(4609.4 960.8)"><tspan x="0" y="0">REQUEST A DEMO</tspan></text>
          </g>
          <polygon class="cls-11" points="5056 943.4 5027.1 926.7 5027.1 960.1 5056 943.4"/>
          <polyline class="cls-13" points="1014.7 1762.5 1014.7 1795.9 1043.5 1779.2"/>
        </g>
        <image class="cls-4" width="781" height="53" transform="translate(592.9 223) scale(1.4)" xlink:href="sarch icon-1.png"/>
        <rect class="cls-12" x="1362.2" y="230.5" width="212.3" height="49.3"/>
        <rect class="cls-12" x="1183.8" y="230.5" width="132.5" height="49.3"/>
        <g class="cls-4">
          <text class="cls-2" transform="translate(1406.2 264.6)"><tspan x="0" y="0">Why ACT21?</tspan></text>
        </g>
        <g class="cls-4">
          <text class="cls-2" transform="translate(1200.7 264.6)"><tspan x="0" y="0">Industries</tspan></text>
        </g>
      </g>
    </g>
  </g>
</svg>